# xmcd
#
# Track frame offsets:
#  150
#  16187
#  37330
#  50676
#  68125
#  85901
#  110388
#  129099
#  147583
#  167619
#  186304
#  206986
#
# Disc length: 2994 seconds
#
# Revision: 1
# Processed by: cddbd v1.5.1PL0 Copyright (c) Steve Scherf et al.
# Submitted via: Collectorz.com_Music_Collector 6.9
#
DISCID=af0bb00c
DTITLE=Lady Bianca - Let Love Have It's Way
DYEAR=2005
DGENRE=Blues -  Blues Pop
TTITLE0=Back In Love Again
TTITLE1=I Found Love
TTITLE2=Angel Of Mine
TTITLE3=Since You Been Lovin' Me
TTITLE4=Rockin' Cool
TTITLE5=Let Love Have It's Way
TTITLE6=Still Good
TTITLE7=Oh My Love
TTITLE8=Real Man
TTITLE9=Bring It On
TTITLE10=Lay Me Down
TTITLE11=Your Amazing Love
EXTD=
EXTT0=
EXTT1=
EXTT2=
EXTT3=
EXTT4=
EXTT5=
EXTT6=
EXTT7=
EXTT8=
EXTT9=
EXTT10=
EXTT11=
PLAYORDER=
